<svg xmlns="http://www.w3.org/2000/svg" viewBox="0 0 64 64"><g id="_03-Award" data-name="03-Award"><polygon points="19 59 17 59 17 63 21 63 21 59 19 59" style="fill:#ad362f"/><polygon points="43 59 43 63 47 63 47 59 45 59 43 59" style="fill:#ad362f"/><polygon points="41 59 23 59 21 59 21 63 43 63 43 59 41 59" style="fill:#c73e36"/><polygon points="30.15 56.03 32 55 33.85 56.03 33.5 53.86 35 52.32 32.93 52 32 50.03 31.07 52 29 52.32 30.5 53.86 30.15 56.03" style="fill:#ffcb02"/><polygon points="23 59 23 47 19 47 19 59 21 59 23 59" style="fill:#c73e36"/><polygon points="43 59 45 59 45 47 41 47 41 59 43 59" style="fill:#c73e36"/><path d="M41,59V47H23V59Zm-9.93-7L32,50.03,32.93,52l2.07.32-1.5,1.54.35,2.17L32,55l-1.85,1.03.35-2.17L29,52.32Z" style="fill:#fe4f46"/><polygon points="38 44 36 44 28 44 26 44 26 47 38 47 38 44" style="fill:#ff9102"/><path d="M36,42c-2-2-2-10-2-10H30s0,8-2,10v2h8Z" style="fill:#ffcb02"/><path d="M35,32V28.56a10.447,10.447,0,0,1-6,0V32h6Z" style="fill:#ff9102"/><polygon points="60.24 22.63 59 20 57.76 22.63 55 23.06 57 25.11 56.53 28 59 26.63 61.47 28 61 25.11 63 23.06 60.24 22.63" style="fill:#ffe480"/><polygon points="53.16 35.61 51 31 48.84 35.61 44 36.35 47.5 39.93 46.67 45 51 42.61 55.33 45 54.5 39.93 58 36.35 53.16 35.61" style="fill:#ffcb02"/><polygon points="7 25.11 9 23.06 6.24 22.63 5 20 3.76 22.63 1 23.06 3 25.11 2.53 28 5 26.63 7.47 28 7 25.11" style="fill:#ffe480"/><polygon points="16.5 39.93 20 36.35 15.16 35.61 13 31 10.84 35.61 6 36.35 9.5 39.93 8.67 45 13 42.61 17.33 45 16.5 39.93" style="fill:#ffcb02"/><path d="M35,28.56a10.379,10.379,0,0,0,7.1-7.59,8.546,8.546,0,0,0,.17-.88L43.86,9,45,1H19l1.14,8,1.59,11.09a8.546,8.546,0,0,0,.17.88A10.379,10.379,0,0,0,29,28.56a10.447,10.447,0,0,0,6,0Z" style="fill:#ffcb02"/><path d="M26.9,20.97a8.546,8.546,0,0,1-.17-.88L25.14,9,24,1H19l1.14,8,1.59,11.09a8.546,8.546,0,0,0,.17.88A10.379,10.379,0,0,0,29,28.56a10.091,10.091,0,0,0,5.5.112c-.165-.041-.338-.063-.5-.112A10.379,10.379,0,0,1,26.9,20.97Z" style="fill:#ffab02"/><path d="M20,10a1,1,0,0,1-.949-.684C19.021,9.231,18.187,7,15,7c-3.346,0-4,1.467-4,4a8.527,8.527,0,0,0,7.2,8.02l3.5.871L20.283,10Z" style="fill:none"/><path d="M45.759,19.03A8.546,8.546,0,0,0,53,11c0-2.533-.654-4-4-4-3.242,0-4.043,2.293-4.051,2.316A1,1,0,0,1,44,10h-.283L42.3,19.891Z" style="fill:none"/><path d="M21.73,20.09l-.029-.2-3.5-.871A8.527,8.527,0,0,1,11,11c0-2.533.654-4,4-4,3.187,0,4.021,2.231,4.051,2.316A1,1,0,0,0,20,10h.283L20.14,9l-.293-2.055A6.282,6.282,0,0,0,15,5C9.622,5,9,8.424,9,11c0,4.763,3.7,8.96,8.759,9.97l3.856.959.1.029A.978.978,0,0,0,22,22h.211a10.2,10.2,0,0,1-.311-1.03A8.546,8.546,0,0,1,21.73,20.09Z" style="fill:#ff8502"/><path d="M49,5a6.282,6.282,0,0,0-4.847,1.945L43.86,9l-.143,1H44a1,1,0,0,0,.949-.684C44.957,9.293,45.758,7,49,7c3.346,0,4,1.467,4,4a8.546,8.546,0,0,1-7.241,8.03l-3.461.861-.028.2a8.546,8.546,0,0,1-.17.88A10.2,10.2,0,0,1,41.789,22H42a.978.978,0,0,0,.285-.042L46.2,20.98C51.3,19.96,55,15.763,55,11,55,8.424,54.378,5,49,5Z" style="fill:#ffab02"/><path d="M30,43V42c1.54-.77,1.894-5.1,1.976-7.047a.994.994,0,0,1,1-.953h1.092C34,32.822,34,32,34,32H30s0,8-2,10v2h8V43Z" style="fill:#ffab02"/><path d="M26,44v3H38V46H30a1,1,0,0,1-1-1V44Z" style="fill:#ff7802"/><path d="M23,47V59H19V57h1a1,1,0,0,0,1-1V47Z" style="fill:#ad362f"/><path d="M41,47V59h4V57H44a1,1,0,0,1-1-1V47Z" style="fill:#ad362f"/><path d="M21,59v4H17V61h2a1,1,0,0,0,1-1V59Z" style="fill:#9c312a"/><path d="M43,59v4h4V61H45a1,1,0,0,1-1-1V59Z" style="fill:#9c312a"/><path d="M30,57a4,4,0,0,1-4-4V47H23V59H41V57Z" style="fill:#e84840"/></g></svg>