<!-- Generated by IcoMoon.io -->
<svg version="1.1" xmlns="http://www.w3.org/2000/svg" width="512" height="512" viewBox="0 0 512 512">
<title></title>
<g id="icomoon-ignore">
</g>
<path fill="#000" d="M464 64h-416c-26.512 0-48 21.488-48 48v288c0 26.496 21.488 48 48 48h416c26.512 0 48-21.504 48-48v-288c0-26.512-21.488-48-48-48zM43.856 415.84l-11.696-11.712 131.984-131.968 11.696 11.712-131.984 131.968zM468.144 415.84l-131.984-131.968 11.696-11.712 131.984 131.968-11.696 11.712zM272 309.2v10.8h-32v-10.8l-207.952-192.8 20.352-20.352 203.6 188.768 203.6-188.768 20.352 20.352-207.952 192.8z"></path>
</svg>
