<!-- Generated by IcoMoon.io -->
<svg version="1.1" xmlns="http://www.w3.org/2000/svg" width="768" height="768" viewBox="0 0 768 768">
<title>trophy</title>
<g id="icomoon-ignore">
</g>
<path fill="#000" d="M384 703.5q-27 0-45.75-18.75t-18.75-44.25h127.5q0 27-18 45t-45 18zM576 352.5v159l64.5 64.5v31.5h-513v-31.5l64.5-64.5v-159q0-75 38.25-130.5t105.75-72v-22.5q0-19.5 13.5-33.75t34.5-14.25 34.5 14.25 13.5 33.75v22.5q67.5 16.5 105.75 72t38.25 130.5zM639 336q-3-54-36-114t-76.5-91.5l45-45q124.5 96 132 250.5h-64.5zM243 130.5q-43.5 31.5-77.25 91.5t-36.75 114h-64.5q7.5-154.5 132-250.5z"></path>
</svg>
