<!-- Generated by IcoMoon.io -->
<svg version="1.1" xmlns="http://www.w3.org/2000/svg" width="768" height="768" viewBox="0 0 768 768">
<title>trophy</title>
<g id="icomoon-ignore">
</g>
<path fill="#000" d="M576 469.5l-286.5-301.5q4.5-1.5 12-5.25l10.5-5.25h1.5l9-4.5q1.5 0 6-1.5t7.5-1.5v-22.5q0-19.5 13.5-33.75t34.5-14.25 34.5 14.25 13.5 33.75v22.5q67.5 16.5 105.75 72t38.25 130.5v117zM384 703.5q-27 0-45.75-18t-18.75-45h129q0 27-18.75 45t-45.75 18zM250.5 196.5q36 37.5 188.25 193.5t233.25 241.5l-40.5 40.5-64.5-64.5h-439.5v-31.5l64.5-64.5v-160.5q0-61.5 25.5-109.5l-90-88.5 40.5-42z"></path>
</svg>
