<svg xmlns="http://www.w3.org/2000/svg" width="222.769" height="179.793" viewBox="0 0 222.769 179.793">
  <g id="award" transform="translate(47.103 47.793)">
    <path id="Path_11525" data-name="Path 11525" d="M54.886,5.008a13.484,13.484,0,0,1,10.348,4.11l.626,4.342.305,2.113h-.6a2.133,2.133,0,0,1-2.026-1.446c-.017-.048-1.727-4.893-8.648-4.893-7.143,0-8.54,3.1-8.54,8.452.424,8.573,7.321,15.576,15.459,16.967s7.287,2.2,8.156,4.12,0,1.034,0,3.909-1.389,4.5-2.021,4.75.317-4.585-1.137-6.375-5.94-2.284-5.94-2.284C49.976,36.617,42.077,27.749,42.077,17.685,42.077,12.242,43.4,5.008,54.886,5.008Z" transform="translate(-23.461 4.444)" fill="#f36d32"/>
    <path id="Path_11498" data-name="Path 11498" d="M21.226,59H17v8.452h8.452V59Z" transform="translate(17.806 64.548)" fill="#ad362f"/>
    <path id="Path_11499" data-name="Path 11499" d="M43,59v8.452h8.452V59H43Z" transform="translate(46.742 64.548)" fill="#ad362f"/>
    <path id="Path_11500" data-name="Path 11500" d="M63.258,59H21v8.452H67.484V59Z" transform="translate(22.258 64.548)" fill="#c73e36"/>
    <path id="Path_11501" data-name="Path 11501" d="M31.43,62.707l3.909-2.176,3.909,2.176-.74-4.585,3.169-3.254L37.3,54.192,35.339,50.03l-1.965,4.162L29,54.869l3.169,3.254Z" transform="translate(31.161 54.566)" fill="#ffcb02"/>
    <path id="Path_11502" data-name="Path 11502" d="M27.452,72.355V47H19V72.355h8.452Z" transform="translate(20.032 51.194)" fill="#c73e36"/>
    <path id="Path_11503" data-name="Path 11503" d="M45.226,72.355h4.226V47H41V72.355Z" transform="translate(44.516 51.194)" fill="#c73e36"/>
    <path id="Path_11504" data-name="Path 11504" d="M61.032,72.355V47H23V72.355ZM40.051,57.565,42.016,53.4l1.965,4.162,4.374.676-3.169,3.254.74,4.585L42.016,63.9,38.107,66.08l.74-4.585-3.169-3.254Z" transform="translate(24.484 51.194)" fill="#fe4f46"/>
    <path id="Path_11505" data-name="Path 11505" d="M51.355,44H26v6.339H51.355Z" transform="translate(27.823 47.855)" fill="#ff9102"/>
    <path id="Path_11506" data-name="Path 11506" d="M44.9,53.129C40.677,48.9,40.677,32,40.677,32H32.226s0,16.9-4.226,21.129v4.226H44.9Z" transform="translate(30.048 34.5)" fill="#ffcb02"/>
    <path id="Path_11517" data-name="Path 11517" d="M57.025,5.008a13.273,13.273,0,0,0-10.241,4.11l-.619,4.342-.3,2.113h.6a2.113,2.113,0,0,0,2.005-1.446c.017-.048,1.709-4.893,8.559-4.893,7.07,0,8.452,3.1,8.452,8.452-.419,8.573-7.246,15.576-15.3,16.967s-6.587,2.2-7.447,4.12-.625,1.034-.625,3.909,1.375,4.5,2,4.75-.313-4.585,1.125-6.375,5.878-2.284,5.878-2.284C61.885,36.617,69.7,27.749,69.7,17.685,69.7,12.242,68.388,5.008,57.025,5.008Z" transform="translate(44.394 4.364)" fill="#f36d32"/>
    <path id="Path_11507" data-name="Path 11507" d="M41.677,35.828V28.56A22.073,22.073,0,0,1,29,28.56v7.268Z" transform="translate(31.161 30.672)" fill="#ff9102"/>
    <path id="Path_11512" data-name="Path 11512" d="M52.806,59.232a21.93,21.93,0,0,0,15-16.037,18.056,18.056,0,0,0,.359-1.859L71.527,17.9,73.935,1H19l2.409,16.9,3.36,23.432a18.057,18.057,0,0,0,.359,1.859A21.9,21.9,0,0,0,52.806,59.232Z" transform="translate(20.032 0)" fill="#ffcb02"/>
    <path id="Path_11513" data-name="Path 11513" d="M35.692,43.195a18.058,18.058,0,0,1-.359-1.859L31.973,17.9,29.565,1H19l2.409,16.9,3.36,23.432a18.057,18.057,0,0,0,.359,1.859,21.93,21.93,0,0,0,15,16.037,21.321,21.321,0,0,0,11.621.237c-.349-.087-.714-.133-1.056-.237a21.93,21.93,0,0,1-15-16.037Z" transform="translate(20.032 0)" fill="#ffab02"/>
    <path id="Path_11514" data-name="Path 11514" d="M30.016,13.339a2.113,2.113,0,0,1-2.005-1.446C27.948,11.714,26.185,7,19.452,7,12.382,7,11,10.1,11,15.452A18.017,18.017,0,0,0,26.213,32.4l7.4,1.84-2.994-20.9Z" transform="translate(11.129 6.677)" fill="none"/>
    <path id="Path_11515" data-name="Path 11515" d="M49.609,32.418a18.057,18.057,0,0,0,15.3-16.967C64.908,10.1,63.526,7,56.456,7c-6.85,0-8.542,4.845-8.559,4.893a2.113,2.113,0,0,1-2.005,1.445h-.6L42.3,34.237Z" transform="translate(45.963 6.677)" fill="none"/>
    <path id="Path_11518" data-name="Path 11518" d="M32.226,55.242V53.129c3.254-1.627,4-10.776,4.175-14.89a2.1,2.1,0,0,1,2.113-2.014h2.307C40.677,33.737,40.677,32,40.677,32H32.226s0,16.9-4.226,21.129v4.226H44.9V55.242Z" transform="translate(30.048 34.5)" fill="#ffab02"/>
    <path id="Path_11519" data-name="Path 11519" d="M26,44v6.339H51.355V48.226h-16.9a2.113,2.113,0,0,1-2.113-2.113V44Z" transform="translate(27.823 47.855)" fill="#ff7802"/>
    <path id="Path_11520" data-name="Path 11520" d="M27.452,47V72.355H19V68.129h2.113a2.113,2.113,0,0,0,2.113-2.113V47Z" transform="translate(20.032 51.194)" fill="#ad362f"/>
    <path id="Path_11521" data-name="Path 11521" d="M41,47V72.355h8.452V68.129H47.339a2.113,2.113,0,0,1-2.113-2.113V47Z" transform="translate(44.516 51.194)" fill="#ad362f"/>
    <path id="Path_11522" data-name="Path 11522" d="M25.452,59v8.452H17V63.226h4.226a2.113,2.113,0,0,0,2.113-2.113V59Z" transform="translate(17.806 64.548)" fill="#9c312a"/>
    <path id="Path_11523" data-name="Path 11523" d="M43,59v8.452h8.452V63.226H47.226a2.113,2.113,0,0,1-2.113-2.113V59Z" transform="translate(46.742 64.548)" fill="#9c312a"/>
    <path id="Path_11524" data-name="Path 11524" d="M37.79,68.129a8.452,8.452,0,0,1-8.452-8.452V47H23V72.355H61.032V68.129Z" transform="translate(24.484 51.194)" fill="#e84840"/>
    <path id="Path_11508" data-name="Path 11508" d="M66.072,25.557,63.452,20l-2.62,5.557L55,26.465,59.226,30.8,58.233,36.9l5.219-2.895L68.67,36.9,67.677,30.8,71.9,26.465Z" transform="translate(2.548 -1.155)" fill="#f36d32"/>
  </g>
  <path id="Path_11526" data-name="Path 11526" d="M59.522,22.269,58.452,20l-1.07,2.269L55,22.64l1.726,1.769L56.32,26.9l2.131-1.182L60.583,26.9l-.406-2.494L61.9,22.64Z" transform="translate(-33.349 38.793)" fill="#f36d32"/>
  <path id="Path_11527" data-name="Path 11527" d="M59.522,22.269,58.452,20l-1.07,2.269L55,22.64l1.726,1.769L56.32,26.9l2.131-1.182L60.583,26.9l-.406-2.494L61.9,22.64Z" transform="translate(10.718 90.842)" fill="#ffbb3b"/>
  <path id="Path_11528" data-name="Path 11528" d="M58.309,21.661,57.526,20l-.783,1.661L55,21.932l1.263,1.294-.3,1.825,1.56-.865,1.56.865-.3-1.825,1.263-1.294Z" transform="translate(-10.282 113.694)" fill="#f36d32"/>
  <path id="Path_11529" data-name="Path 11529" d="M58.309,21.661,57.526,20l-.783,1.661L55,21.932l1.263,1.294-.3,1.825,1.56-.865,1.56.865-.3-1.825,1.263-1.294Z" transform="translate(17.621 -11.306)" fill="#ffbb3b"/>
  <path id="Path_11530" data-name="Path 11530" d="M59.522,22.269,58.452,20l-1.07,2.269L55,22.64l1.726,1.769L56.32,26.9l2.131-1.182L60.583,26.9l-.406-2.494L61.9,22.64Z" transform="translate(120.651 120.793)" fill="#f36d32"/>
  <path id="Path_11531" data-name="Path 11531" d="M58.309,21.661,57.526,20l-.783,1.661L55,21.932l1.263,1.294-.3,1.825,1.56-.865,1.56.865-.3-1.825,1.263-1.294Z" transform="translate(162.718 45.697)" fill="#f36d32"/>
  <path id="Path_11532" data-name="Path 11532" d="M58.309,21.661,57.526,20l-.783,1.661L55,21.932l1.263,1.294-.3,1.825,1.56-.865,1.56.865-.3-1.825,1.263-1.294Z" transform="translate(119.051 6.697)" fill="#f36d32"/>
  <path id="Path_11533" data-name="Path 11533" d="M58.309,21.661,57.526,20l-.783,1.661L55,21.932l1.263,1.294-.3,1.825,1.56-.865,1.56.865-.3-1.825,1.263-1.294Z" transform="translate(136.621 40.645)" fill="#ffbb3b"/>
  <path id="Path_11534" data-name="Path 11534" d="M58.309,21.661,57.526,20l-.783,1.661L55,21.932l1.263,1.294-.3,1.825,1.56-.865,1.56.865-.3-1.825,1.263-1.294Z" transform="translate(114 76.645)" fill="#ffbb3b"/>
  <path id="Path_11535" data-name="Path 11535" d="M58.309,21.661,57.526,20l-.783,1.661L55,21.932l1.263,1.294-.3,1.825,1.56-.865,1.56.865-.3-1.825,1.263-1.294Z" transform="translate(-55 101.742)" fill="#ffbb3b"/>
  <path id="Path_11536" data-name="Path 11536" d="M3873.949,618c14.385-3.667,10.718,4,10.718,4s-8.667,2-4.667,8,14.25-2,9.25-3.75-14.75.75-13.75,6.5,12,10,13.75,7.25-9.1-9.25-15.3-1.75" transform="matrix(0.819, -0.574, 0.574, 0.819, -3514.537, 1727.314)" fill="none" stroke="#f36d32" stroke-width="1"/>
  <path id="Path_11537" data-name="Path 11537" d="M3877.3,619.1c-7.067,5.734,13.7,16.612,12.7,8.89s-12.841-1.509-11.841,4.241,12.043,11.161,12.946,5.078-17.49-2.481-14.379,7.023" transform="matrix(0.819, -0.574, 0.574, 0.819, -3336.853, 1725.334)" fill="none" stroke="#ffbb3b" stroke-width="1"/>
  <path id="Path_11538" data-name="Path 11538" d="M3876.8,619.1c-4.649,5.373,9.012,15.568,8.353,8.332s-8.448-1.414-7.79,3.974,7.923,10.459,8.517,4.759-11.506-2.325-9.459,6.582" transform="matrix(-0.326, 0.946, -0.946, -0.326, 1880.132, -3362.327)" fill="none" stroke="#ffbb3b" stroke-width="1"/>
  <path id="Path_11539" data-name="Path 11539" d="M3886.248,626.89c-4.171-2.259-8.734.549-8.077,5.938s7.117,9.041,7.71,3.341-11.506-2.325-9.459,6.582" transform="translate(23.444 -3801.755) rotate(80)" fill="none" stroke="#f8773e" stroke-width="1"/>
  <path id="Path_11540" data-name="Path 11540" d="M3883.243,626.667c-2.925-1.617-6.125.393-5.664,4.252s4.99,6.474,5.406,2.392-8.068-1.665-6.633,4.713" transform="translate(949.634 -3734.759) rotate(92)" fill="none" stroke="#f8773e" stroke-width="1"/>
  <path id="Path_11541" data-name="Path 11541" d="M3886.248,626.89c-4.171-2.259-8.734.549-8.077,5.938s7.117,9.041,7.71,3.341-11.506-2.325-9.459,6.582" transform="translate(-3626.53 -1150.797) rotate(8)" fill="none" stroke="#f8773e" stroke-width="1"/>
</svg>
