<svg xmlns="http://www.w3.org/2000/svg" width="209.628" height="175.09" viewBox="0 0 209.628 175.09">
  <g id="logo" transform="translate(0 0)">
    <g id="Path_42" data-name="Path 42" transform="translate(0 36.09)" fill="#f36d32">
      <path d="M 144.6768341064453 138.5 L 25.98984909057617 138.5 C 22.55280685424805 138.5 19.21848106384277 137.7799377441406 16.07952308654785 136.3597869873047 C 13.04502391815186 134.9869079589844 10.31911087036133 133.0208282470703 7.977502346038818 130.51611328125 C 5.633654117584229 128.0090179443359 3.793241262435913 125.088996887207 2.507371664047241 121.8371505737305 C 1.175371766090393 118.4686279296875 0.5000021457672119 114.889762878418 0.5000021457672119 111.1999969482422 L 0.5000021457672119 27.79999923706055 C 0.5000021457672119 24.11023902893066 1.175371766090393 20.53137016296387 2.507371664047241 17.1628475189209 C 3.793241262435913 13.91100025177002 5.633654117584229 10.9909782409668 7.977502346038818 8.483891487121582 C 10.31911087036133 5.979174137115479 13.04502391815186 4.013086795806885 16.07952308654785 2.640217304229736 C 19.21848106384277 1.220065236091614 22.55280685424805 0.5 25.98984909057617 0.5 L 119.3237609863281 0.5 L 139.8995819091797 11.10115242004395 L 140.0073547363281 11.1566743850708 L 140.1285858154297 11.1566743850708 C 142.5935211181641 11.1566743850708 145.2791748046875 10.90260887145996 147.8763885498047 10.6569128036499 C 150.4936065673828 10.40932655334473 153.199951171875 10.15330410003662 155.6997680664063 10.15330410003662 C 158.7370300292969 10.15330410003662 161.0208740234375 10.52119541168213 162.8871917724609 11.31104373931885 C 165.0743255615234 12.23665237426758 166.6269836425781 13.74480438232422 167.6338500976563 15.92167377471924 C 169.2908477783203 19.50056457519531 170.1666564941406 23.60795593261719 170.1666564941406 27.79999923706055 L 170.1666564941406 111.1999969482422 C 170.1666564941406 114.889762878418 169.4912872314453 118.4686279296875 168.1592864990234 121.8371505737305 C 166.8734130859375 125.088996887207 165.0330200195313 128.0090179443359 162.6891479492188 130.51611328125 C 160.3475494384766 133.0208282470703 157.6216278076172 134.9869079589844 154.5871276855469 136.3597869873047 C 151.4481811523438 137.7799377441406 148.1138763427734 138.5 144.6768341064453 138.5 Z" stroke="none"/>
      <path d="M 25.98985290527344 1 C 22.62434387207031 1 19.35939025878906 1.705108642578125 16.28562927246094 3.09576416015625 C 13.31147766113281 4.441329956054688 10.63911437988281 6.369049072265625 8.342742919921875 8.825347900390625 C 6.041900634765625 11.28643798828125 4.23504638671875 14.15343475341797 2.97235107421875 17.34669494628906 C 1.663589477539063 20.65645599365234 1 24.17345428466797 1 27.80000305175781 L 1 111.1999969482422 C 1 114.826545715332 1.663589477539063 118.3435440063477 2.97235107421875 121.6533050537109 C 4.23504638671875 124.846565246582 6.041900634765625 127.7135620117188 8.342742919921875 130.1746520996094 C 10.63911437988281 132.6309509277344 13.31147766113281 134.5586700439453 16.28562927246094 135.9042358398438 C 19.35939025878906 137.2948913574219 22.62434387207031 138 25.98985290527344 138 L 144.6768035888672 138 C 148.0423126220703 138 151.3072662353516 137.2948913574219 154.3810272216797 135.9042358398438 C 157.3551788330078 134.5586700439453 160.0275421142578 132.6309509277344 162.3239135742188 130.1746520996094 C 164.624755859375 127.7135620117188 166.4316101074219 124.846565246582 167.6943054199219 121.6533050537109 C 169.0030670166016 118.3435440063477 169.6666564941406 114.826545715332 169.6666564941406 111.1999969482422 L 169.6666564941406 27.80000305175781 C 169.6666564941406 23.68002319335938 168.8068542480469 19.645263671875 167.1800384521484 16.13156890869141 C 166.2277221679688 14.0726318359375 164.759765625 12.64641571044922 162.6923065185547 11.77143096923828 C 160.9143524169922 11.01898193359375 158.6270904541016 10.65324401855469 155.6997680664063 10.65330505371094 C 153.2236785888672 10.65335083007813 150.5294342041016 10.90821838378906 147.9239196777344 11.15467071533203 C 145.3150024414063 11.40145874023438 142.6172485351563 11.65665435791016 140.1285858154297 11.65665435791016 L 139.8861389160156 11.65665435791016 L 139.6705932617188 11.54560852050781 L 119.2025299072266 1 L 25.98985290527344 1 M 25.98985290527344 0 L 119.4450073242188 0 L 140.1285858154297 10.65664672851563 C 145.0383148193359 10.65664672851563 150.6805877685547 9.653411865234375 155.6997375488281 9.653289794921875 C 161.1282958984375 9.653182983398438 165.8280639648438 10.82650756835938 168.0876617431641 15.71176147460938 C 169.7015228271484 19.19750213623047 170.6666564941406 23.37819671630859 170.6666564941406 27.80000305175781 L 170.6666564941406 111.1999969482422 C 170.6666564941406 126.5535202026367 159.0306091308594 139 144.6768035888672 139 L 25.98985290527344 139 C 11.63604736328125 139 0 126.5535202026367 0 111.1999969482422 L 0 27.80000305175781 C 0 12.44647979736328 11.63604736328125 0 25.98985290527344 0 Z" stroke="none" fill="#373737"/>
    </g>
    <text id="Quiz" transform="translate(12.667 154.09)" fill="#fff" font-size="71" font-family="LeelawadeeUI-Bold, Leelawadee UI" font-weight="700" letter-spacing="-0.154em"><tspan x="0" y="0">Q</tspan><tspan y="0" letter-spacing="-0.138em">U</tspan><tspan y="0" letter-spacing="-0.101em">IZ</tspan></text>
    <text id="_" data-name="መልመጃ" transform="translate(17.667 92.09)" fill="#373737" font-size="32" font-family="GeezFutura-Bold, Geez Futura" font-weight="700"><tspan x="0" y="0">መልመጃ</tspan></text>
    <g id="grad_icon" data-name="grad icon" transform="matrix(0.998, 0.07, -0.07, 0.998, -147.066, -170.206)">
      <path id="Path_39" data-name="Path 39" d="M-20,0,51.708,1.823,96.263,35.567H25.893Z" transform="translate(272 153)"/>
      <path id="Path_40" data-name="Path 40" d="M258.311,157.089l27.536,21.178,41.569-.408s-1.772,15.13-3.206,16.277-26.2,2.008-35.567,2.008-6.167,1.406-13.625-3.872-22.086-17.353-22.23-18.5S258.311,157.089,258.311,157.089Z" transform="translate(11.473 13.223)"/>
      <path id="Path_41" data-name="Path 41" d="M1.793,0H4.087V42.193s1.291,1.065,1.291,2.1-1.291,2.046-1.291,2.046l1.291,6.292H0l1.793-6.292A3.187,3.187,0,0,1,.574,44.3a3.381,3.381,0,0,1,1.219-2.1Z" transform="translate(350.324 185.682) rotate(-4)"/>
    </g>
  </g>
</svg>
